<svg width="1600" height="720" viewBox="0 0 1600 720" fill="none" xmlns="http://www.w3.org/2000/svg">
  <rect width="1600" height="720" fill="#050608"/>
  <circle cx="1368" cy="96" r="260" fill="#F4D58D" opacity="0.11"/>
  <circle cx="1262" cy="140" r="110" fill="#FFFFFF" opacity="0.035"/>
  <circle cx="116" cy="648" r="260" fill="#4B79FF" opacity="0.045"/>
  <path d="M0 612C214 560 318 628 504 585C690 542 758 421 952 427C1146 433 1276 540 1600 485V720H0V612Z" fill="#0B0D12" opacity="0.68"/>

  <g transform="translate(128 128)">
    <circle cx="42" cy="42" r="42" fill="#F0D38A"/>
    <path d="M23 45L36 32L50 43L63 27" stroke="#050608" stroke-width="9" stroke-linecap="round" stroke-linejoin="round"/>

    <text x="0" y="154" fill="#F8F8F6" font-family="-apple-system,BlinkMacSystemFont,Segoe UI,sans-serif" font-size="82" font-weight="800">Access Controls</text>
    <text x="2" y="212" fill="#B7BBC5" font-family="-apple-system,BlinkMacSystemFont,Segoe UI,sans-serif" font-size="28" font-weight="650">One-click access to apps, URLs, and deep links.</text>

    <g transform="translate(0 274)">
      <rect width="158" height="48" rx="15" fill="#151820" stroke="#2B303B"/>
      <circle cx="29" cy="24" r="10" fill="#F0D38A"/>
      <text x="50" y="31" fill="#F8F8F6" font-family="-apple-system,BlinkMacSystemFont,Segoe UI,sans-serif" font-size="18" font-weight="720">Apps</text>

      <rect x="176" width="154" height="48" rx="15" fill="#151820" stroke="#2B303B"/>
      <circle cx="205" cy="24" r="10" fill="#EF6262"/>
      <text x="226" y="31" fill="#F8F8F6" font-family="-apple-system,BlinkMacSystemFont,Segoe UI,sans-serif" font-size="18" font-weight="720">Links</text>

      <rect x="348" width="190" height="48" rx="15" fill="#151820" stroke="#2B303B"/>
      <circle cx="377" cy="24" r="10" fill="#57C77A"/>
      <text x="398" y="31" fill="#F8F8F6" font-family="-apple-system,BlinkMacSystemFont,Segoe UI,sans-serif" font-size="18" font-weight="720">Local only</text>
    </g>
  </g>

  <g transform="translate(924 70)">
    <rect x="0" y="30" width="470" height="570" rx="34" fill="#07090C" stroke="#3A3D46" stroke-width="2"/>
    <rect x="0" y="30" width="470" height="570" rx="34" fill="url(#glass)" opacity="0.9"/>
    <circle cx="56" cy="84" r="24" fill="#F0D38A"/>
    <path d="M43 87L52 78L62 86L70 75" stroke="#050608" stroke-width="5" stroke-linecap="round" stroke-linejoin="round"/>
    <text x="94" y="78" fill="#FFFFFF" font-family="-apple-system,BlinkMacSystemFont,Segoe UI,sans-serif" font-size="30" font-weight="800">Access Controls</text>
    <text x="94" y="108" fill="#A6A9B1" font-family="-apple-system,BlinkMacSystemFont,Segoe UI,sans-serif" font-size="17" font-weight="700">7 shortcuts</text>
    <rect x="386" y="60" width="54" height="54" rx="17" fill="#FFFFFF" opacity="0.08"/>
    <path d="M413 75V90L425 82" stroke="#D8DADE" stroke-width="3" stroke-linecap="round" stroke-linejoin="round"/>
    <path d="M426 93C423 101 416 106 407 106C397 106 389 98 389 88C389 80 394 73 402 70" stroke="#D8DADE" stroke-width="3" stroke-linecap="round"/>

    <rect x="30" y="142" width="410" height="372" rx="24" fill="#111318" stroke="#2C3038" stroke-width="1.5"/>
    <text x="58" y="178" fill="#A4A7AE" font-family="-apple-system,BlinkMacSystemFont,Segoe UI,sans-serif" font-size="17" font-weight="800">APPS</text>
    <text x="412" y="178" fill="#A4A7AE" font-family="-apple-system,BlinkMacSystemFont,Segoe UI,sans-serif" font-size="17" font-weight="800" text-anchor="end">3</text>

    <g fill="#F8F8F6" font-family="-apple-system,BlinkMacSystemFont,Segoe UI,sans-serif" font-size="21" font-weight="760">
      <rect x="60" y="198" width="38" height="38" rx="12" fill="#3A382C"/>
      <circle cx="79" cy="217" r="11" fill="#6F737A"/>
      <text x="120" y="225">Horby</text>
      <rect x="120" y="252" width="284" height="1" fill="#FFFFFF" opacity="0.075"/>

      <rect x="60" y="272" width="38" height="38" rx="12" fill="#3A382C"/>
      <circle cx="79" cy="291" r="11" fill="#D8DADE"/>
      <text x="120" y="299">Claude</text>
      <rect x="120" y="326" width="284" height="1" fill="#FFFFFF" opacity="0.075"/>

      <rect x="60" y="346" width="38" height="38" rx="12" fill="#3A382C"/>
      <circle cx="79" cy="365" r="11" fill="#92969C"/>
      <text x="120" y="373">Codex</text>
    </g>

    <text x="58" y="428" fill="#A4A7AE" font-family="-apple-system,BlinkMacSystemFont,Segoe UI,sans-serif" font-size="17" font-weight="800">LINKS</text>
    <text x="412" y="428" fill="#A4A7AE" font-family="-apple-system,BlinkMacSystemFont,Segoe UI,sans-serif" font-size="17" font-weight="800" text-anchor="end">4</text>

    <g font-family="-apple-system,BlinkMacSystemFont,Segoe UI,sans-serif" font-size="21" font-weight="760">
      <rect x="60" y="448" width="38" height="38" rx="12" fill="#7A3030"/>
      <path d="M73 473L86 460" stroke="#FF6D6D" stroke-width="4" stroke-linecap="round"/>
      <text x="120" y="475" fill="#F8F8F6">Mowgli</text>
      <rect x="338" y="457" width="18" height="22" rx="3" stroke="#A8ABB2" stroke-width="2"/>
      <path d="M344 452H361V472" stroke="#A8ABB2" stroke-width="2" stroke-linecap="round" stroke-linejoin="round"/>
      <path d="M386 475L400 461" stroke="#A8ABB2" stroke-width="3" stroke-linecap="round"/>
      <path d="M418 459H434M422 459L424 481H428L430 459M424 453H428" stroke="#FF8A8A" stroke-width="3" stroke-linecap="round" stroke-linejoin="round"/>
    </g>

    <rect x="30" y="536" width="190" height="48" rx="15" fill="#191D22" stroke="#514A35" stroke-width="1.5"/>
    <text x="125" y="567" fill="#F8F8F6" font-family="-apple-system,BlinkMacSystemFont,Segoe UI,sans-serif" font-size="20" font-weight="800" text-anchor="middle">App</text>
    <rect x="250" y="536" width="190" height="48" rx="15" fill="#15181D" stroke="#30343B" stroke-width="1.5"/>
    <text x="345" y="567" fill="#F8F8F6" font-family="-apple-system,BlinkMacSystemFont,Segoe UI,sans-serif" font-size="20" font-weight="800" text-anchor="middle">Link</text>
  </g>

  <defs>
    <linearGradient id="glass" x1="0" y1="30" x2="470" y2="600" gradientUnits="userSpaceOnUse">
      <stop stop-color="#FFFFFF" stop-opacity="0.035"/>
      <stop offset="0.58" stop-color="#FFFFFF" stop-opacity="0.015"/>
      <stop offset="1" stop-color="#F4D58D" stop-opacity="0.055"/>
    </linearGradient>
  </defs>
</svg>
