<svg width="1200" height="1320" viewBox="0 0 1200 1320" fill="none" xmlns="http://www.w3.org/2000/svg">
  <rect width="1200" height="1320" fill="#050608"/>
  <circle cx="865" cy="160" r="250" fill="#F4D58D" opacity="0.11"/>
  <circle cx="318" cy="1080" r="380" fill="#253142" opacity="0.28"/>

  <g transform="translate(176 74)">
    <rect width="848" height="1172" rx="46" fill="#07090C" stroke="#41444C" stroke-width="2.4"/>
    <rect width="848" height="1172" rx="46" fill="url(#glass)" opacity="0.85"/>

    <circle cx="76" cy="80" r="28" fill="#F0D38A"/>
    <path d="M58 84L71 71L87 83L99 68" stroke="#050608" stroke-width="7" stroke-linecap="round" stroke-linejoin="round"/>
    <text x="124" y="72" fill="#FFFFFF" font-family="-apple-system,BlinkMacSystemFont,Segoe UI,sans-serif" font-size="39" font-weight="820">Access Controls</text>
    <text x="124" y="108" fill="#A6A9B1" font-family="-apple-system,BlinkMacSystemFont,Segoe UI,sans-serif" font-size="24" font-weight="720">7 shortcuts</text>
    <rect x="770" y="50" width="60" height="60" rx="19" fill="#FFFFFF" opacity="0.08"/>
    <path d="M801 66V84L815 74" stroke="#D8DADE" stroke-width="4" stroke-linecap="round" stroke-linejoin="round"/>
    <path d="M814 88C811 98 802 104 792 104C780 104 770 94 770 82C770 72 776 64 785 61" stroke="#D8DADE" stroke-width="4" stroke-linecap="round"/>

    <rect x="30" y="138" width="788" height="790" rx="31" fill="#111316" stroke="#30333A" stroke-width="2"/>
    <text x="58" y="180" fill="#A3A5AB" font-family="-apple-system,BlinkMacSystemFont,Segoe UI,sans-serif" font-size="24" font-weight="820">APPS</text>
    <text x="790" y="180" fill="#A3A5AB" font-family="-apple-system,BlinkMacSystemFont,Segoe UI,sans-serif" font-size="24" font-weight="820" text-anchor="end">3</text>

    <g font-family="-apple-system,BlinkMacSystemFont,Segoe UI,sans-serif" font-size="33" font-weight="780" fill="#F8F8F6">
      <rect x="66" y="206" width="64" height="64" rx="17" fill="#3A382C"/>
      <rect x="82" y="222" width="32" height="32" rx="9" fill="#26292E" stroke="#575B60"/>
      <circle cx="98" cy="238" r="8" fill="#858A90"/>
      <text x="154" y="249">Horby</text>
      <g transform="translate(736 220)" stroke="#FF8A8A" stroke-width="4" stroke-linecap="round" stroke-linejoin="round">
        <path d="M0 8H32M10 8V3H22V8M7 13L9 34H23L25 13"/>
      </g>
      <rect x="154" y="292" width="636" height="1.5" fill="#FFFFFF" opacity="0.075"/>

      <rect x="66" y="314" width="64" height="64" rx="17" fill="#3A382C"/>
      <circle cx="98" cy="346" r="20" fill="#2C3036" stroke="#575B60"/>
      <path d="M98 327V365M79 346H117M84 332L112 360M112 332L84 360" stroke="#F3F4F7" stroke-width="3.4" stroke-linecap="round"/>
      <text x="154" y="357">Claude</text>
      <g transform="translate(736 328)" stroke="#FF8A8A" stroke-width="4" stroke-linecap="round" stroke-linejoin="round">
        <path d="M0 8H32M10 8V3H22V8M7 13L9 34H23L25 13"/>
      </g>
      <rect x="154" y="400" width="636" height="1.5" fill="#FFFFFF" opacity="0.075"/>

      <rect x="66" y="422" width="64" height="64" rx="17" fill="#3A382C"/>
      <rect x="84" y="440" width="28" height="28" rx="9" fill="#777B80"/>
      <circle cx="98" cy="454" r="14" fill="#AEB2B7" opacity="0.65"/>
      <text x="154" y="465">Codex</text>
      <g transform="translate(736 436)" stroke="#FF8A8A" stroke-width="4" stroke-linecap="round" stroke-linejoin="round">
        <path d="M0 8H32M10 8V3H22V8M7 13L9 34H23L25 13"/>
      </g>
    </g>

    <text x="58" y="548" fill="#A3A5AB" font-family="-apple-system,BlinkMacSystemFont,Segoe UI,sans-serif" font-size="24" font-weight="820">LINKS</text>
    <text x="790" y="548" fill="#A3A5AB" font-family="-apple-system,BlinkMacSystemFont,Segoe UI,sans-serif" font-size="24" font-weight="820" text-anchor="end">4</text>

    <g font-family="-apple-system,BlinkMacSystemFont,Segoe UI,sans-serif" font-size="33" font-weight="780">
      <rect x="66" y="576" width="64" height="64" rx="17" fill="#7A3030"/>
      <path d="M88 619L109 598" stroke="#FF6D6D" stroke-width="6" stroke-linecap="round"/>
      <path d="M101 596H111V606" stroke="#FF6D6D" stroke-width="6" stroke-linecap="round" stroke-linejoin="round"/>
      <text x="154" y="620" fill="#F8F8F6">Mowgli</text>
      <g transform="translate(604 592)" stroke="#A8ABB2" stroke-width="3" stroke-linecap="round" stroke-linejoin="round">
        <rect width="19" height="26" rx="3"/>
        <path d="M8 -8H28V17"/>
      </g>
      <path d="M676 620L694 602" stroke="#A8ABB2" stroke-width="4" stroke-linecap="round"/>
      <g transform="translate(736 590)" stroke="#FF8A8A" stroke-width="4" stroke-linecap="round" stroke-linejoin="round">
        <path d="M0 8H32M10 8V3H22V8M7 13L9 34H23L25 13"/>
      </g>
      <rect x="154" y="662" width="636" height="1.5" fill="#FFFFFF" opacity="0.075"/>

      <rect x="66" y="676" width="64" height="64" rx="17" fill="#52305F"/>
      <path d="M88 719L109 698" stroke="#C66CFA" stroke-width="6" stroke-linecap="round"/>
      <path d="M101 696H111V706" stroke="#C66CFA" stroke-width="6" stroke-linecap="round" stroke-linejoin="round"/>
      <text x="154" y="720" fill="#F8F8F6">Ninja</text>
      <g transform="translate(604 692)" stroke="#A8ABB2" stroke-width="3" stroke-linecap="round" stroke-linejoin="round">
        <rect width="19" height="26" rx="3"/>
        <path d="M8 -8H28V17"/>
      </g>
      <path d="M676 720L694 702" stroke="#A8ABB2" stroke-width="4" stroke-linecap="round"/>
      <g transform="translate(736 690)" stroke="#FF8A8A" stroke-width="4" stroke-linecap="round" stroke-linejoin="round">
        <path d="M0 8H32M10 8V3H22V8M7 13L9 34H23L25 13"/>
      </g>
      <rect x="154" y="762" width="636" height="1.5" fill="#FFFFFF" opacity="0.075"/>

      <rect x="66" y="766" width="64" height="64" rx="17" fill="#684728"/>
      <path d="M88 809L109 788" stroke="#FFAC57" stroke-width="6" stroke-linecap="round"/>
      <path d="M101 786H111V796" stroke="#FFAC57" stroke-width="6" stroke-linecap="round" stroke-linejoin="round"/>
      <text x="154" y="810" fill="#F8F8F6">Draco</text>
      <g transform="translate(604 782)" stroke="#A8ABB2" stroke-width="3" stroke-linecap="round" stroke-linejoin="round">
        <rect width="19" height="26" rx="3"/>
        <path d="M8 -8H28V17"/>
      </g>
      <path d="M676 810L694 792" stroke="#A8ABB2" stroke-width="4" stroke-linecap="round"/>
      <g transform="translate(736 780)" stroke="#FF8A8A" stroke-width="4" stroke-linecap="round" stroke-linejoin="round">
        <path d="M0 8H32M10 8V3H22V8M7 13L9 34H23L25 13"/>
      </g>
      <rect x="154" y="852" width="636" height="1.5" fill="#FFFFFF" opacity="0.075"/>

      <rect x="66" y="856" width="64" height="64" rx="17" fill="#1E674A"/>
      <path d="M88 899L109 878" stroke="#35C987" stroke-width="6" stroke-linecap="round"/>
      <path d="M101 876H111V886" stroke="#35C987" stroke-width="6" stroke-linecap="round" stroke-linejoin="round"/>
      <text x="154" y="900" fill="#F8F8F6">Ticking</text>
      <g transform="translate(604 872)" stroke="#A8ABB2" stroke-width="3" stroke-linecap="round" stroke-linejoin="round">
        <rect width="19" height="26" rx="3"/>
        <path d="M8 -8H28V17"/>
      </g>
      <path d="M676 900L694 882" stroke="#A8ABB2" stroke-width="4" stroke-linecap="round"/>
      <g transform="translate(736 870)" stroke="#FF8A8A" stroke-width="4" stroke-linecap="round" stroke-linejoin="round">
        <path d="M0 8H32M10 8V3H22V8M7 13L9 34H23L25 13"/>
      </g>
    </g>

    <rect x="30" y="946" width="388" height="74" rx="24" fill="#1B1E21" stroke="#5B543C" stroke-width="2"/>
    <rect x="450" y="946" width="368" height="74" rx="24" fill="#15181C" stroke="#30343B" stroke-width="2"/>
    <text x="224" y="991" fill="#F8F8F6" font-family="-apple-system,BlinkMacSystemFont,Segoe UI,sans-serif" font-size="30" font-weight="820" text-anchor="middle">App</text>
    <text x="634" y="991" fill="#F8F8F6" font-family="-apple-system,BlinkMacSystemFont,Segoe UI,sans-serif" font-size="30" font-weight="820" text-anchor="middle">Link</text>

    <rect x="30" y="1042" width="788" height="74" rx="24" fill="#111316" stroke="#30333A" stroke-width="2"/>
    <circle cx="70" cy="1079" r="15" stroke="#A8ABB2" stroke-width="3"/>
    <path d="M70 1068V1080" stroke="#A8ABB2" stroke-width="3" stroke-linecap="round"/>
    <text x="106" y="1089" fill="#F8F8F6" font-family="-apple-system,BlinkMacSystemFont,Segoe UI,sans-serif" font-size="30" font-weight="760">Launch at login</text>
    <rect x="708" y="1060" width="78" height="38" rx="19" fill="#62C64E"/>
    <circle cx="766" cy="1079" r="16" fill="#EAF5E8"/>

    <text x="40" y="1150" fill="#A3A5AB" font-family="-apple-system,BlinkMacSystemFont,Segoe UI,sans-serif" font-size="24" font-weight="760">Local only</text>
    <text x="782" y="1150" fill="#A3A5AB" font-family="-apple-system,BlinkMacSystemFont,Segoe UI,sans-serif" font-size="24" font-weight="760" text-anchor="end">Quit</text>
  </g>

  <defs>
    <linearGradient id="glass" x1="176" y1="74" x2="1024" y2="1246" gradientUnits="userSpaceOnUse">
      <stop stop-color="#FFFFFF" stop-opacity="0.028"/>
      <stop offset="0.55" stop-color="#FFFFFF" stop-opacity="0.012"/>
      <stop offset="1" stop-color="#F4D58D" stop-opacity="0.05"/>
    </linearGradient>
  </defs>
</svg>
