<svg width="1200" height="1200" viewBox="0 0 1200 1200" fill="none" xmlns="http://www.w3.org/2000/svg" preserveAspectRatio="xMidYMid meet">
  <rect width="1200" height="1200" fill="#050608"/>
  <circle cx="930" cy="112" r="210" fill="#F4D58D" opacity="0.12"/>
  <circle cx="956" cy="118" r="92" fill="#F4D58D" opacity="0.10"/>
  <circle cx="858" cy="80" r="150" fill="#FFFFFF" opacity="0.035"/>
  <g transform="translate(0 220)">
  <rect x="360" y="92" width="480" height="576" rx="28" fill="#0B0D12" stroke="#2B2E37" stroke-width="1.5"/>
  <rect x="360" y="92" width="480" height="576" rx="28" fill="url(#glass)" opacity="0.72"/>

  <g>
    <rect x="392" y="122" width="416" height="68" rx="19" fill="#151821" stroke="#303441"/>
    <circle cx="426" cy="156" r="17" fill="#F0D38A" opacity="0.96"/>
    <path d="M418 157.5L424.2 151.5L430.5 156.8L436.5 148.8" stroke="#0B0D12" stroke-width="4" stroke-linecap="round" stroke-linejoin="round"/>
    <text x="462" y="151" fill="#F8F8F6" font-family="-apple-system,BlinkMacSystemFont,Segoe UI,sans-serif" font-size="22" font-weight="750">Access Controls</text>
    <text x="462" y="176" fill="#A7ABB6" font-family="-apple-system,BlinkMacSystemFont,Segoe UI,sans-serif" font-size="13" font-weight="650">5 shortcuts</text>
  </g>

  <rect x="392" y="212" width="416" height="280" rx="18" fill="#11141B" stroke="#2A2E38"/>
  <text x="416" y="248" fill="#858B98" font-family="-apple-system,BlinkMacSystemFont,Segoe UI,sans-serif" font-size="12" font-weight="800">APPS</text>
  <text x="770" y="248" fill="#676D78" font-family="-apple-system,BlinkMacSystemFont,Segoe UI,sans-serif" font-size="12" font-weight="800" text-anchor="end">3</text>

  <g>
    <rect x="412" y="264" width="376" height="44" rx="13" fill="#191D27" stroke="#303542"/>
    <rect x="426" y="272" width="28" height="28" rx="8" fill="#252B36"/>
    <circle cx="440" cy="286" r="10" fill="#7CC4FF" opacity="0.92"/>
    <text x="470" y="292" fill="#F8F8F6" font-family="-apple-system,BlinkMacSystemFont,Segoe UI,sans-serif" font-size="15" font-weight="700">Safari</text>
  </g>
  <g>
    <rect x="412" y="316" width="376" height="44" rx="13" fill="#191D27" stroke="#303542"/>
    <rect x="426" y="324" width="28" height="28" rx="8" fill="#252B36"/>
    <circle cx="440" cy="338" r="10" fill="#F4D58D" opacity="0.92"/>
    <text x="470" y="344" fill="#F8F8F6" font-family="-apple-system,BlinkMacSystemFont,Segoe UI,sans-serif" font-size="15" font-weight="700">Google Chrome</text>
  </g>
  <g>
    <rect x="412" y="368" width="376" height="44" rx="13" fill="#191D27" stroke="#303542"/>
    <rect x="426" y="376" width="28" height="28" rx="8" fill="#252B36"/>
    <circle cx="440" cy="390" r="10" fill="#B792FF" opacity="0.92"/>
    <text x="470" y="396" fill="#F8F8F6" font-family="-apple-system,BlinkMacSystemFont,Segoe UI,sans-serif" font-size="15" font-weight="700">Cursor</text>
  </g>

  <text x="416" y="448" fill="#858B98" font-family="-apple-system,BlinkMacSystemFont,Segoe UI,sans-serif" font-size="12" font-weight="800">LINKS</text>
  <text x="770" y="448" fill="#676D78" font-family="-apple-system,BlinkMacSystemFont,Segoe UI,sans-serif" font-size="12" font-weight="800" text-anchor="end">2</text>
  <g>
    <rect x="412" y="464" width="376" height="58" rx="13" fill="#191D27" stroke="#303542"/>
    <rect x="412" y="474" width="3" height="38" rx="1.5" fill="#24B47E"/>
    <text x="434" y="491" fill="#F8F8F6" font-family="-apple-system,BlinkMacSystemFont,Segoe UI,sans-serif" font-size="15" font-weight="700">School Portal</text>
    <text x="434" y="509" fill="#858B98" font-family="-apple-system,BlinkMacSystemFont,Segoe UI,sans-serif" font-size="11" font-weight="600">https://portal.example.edu</text>
  </g>

  <g>
    <rect x="392" y="514" width="200" height="42" rx="13" fill="#171B24" stroke="#4F4937"/>
    <text x="492" y="541" fill="#F8F8F6" font-family="-apple-system,BlinkMacSystemFont,Segoe UI,sans-serif" font-size="14" font-weight="760" text-anchor="middle">App</text>
    <rect x="608" y="514" width="200" height="42" rx="13" fill="#12161E" stroke="#2B2F3A"/>
    <text x="708" y="541" fill="#F8F8F6" font-family="-apple-system,BlinkMacSystemFont,Segoe UI,sans-serif" font-size="14" font-weight="760" text-anchor="middle">Link</text>
  </g>

  <rect x="392" y="574" width="416" height="48" rx="15" fill="#11141B" stroke="#2A2E38"/>
  <text x="430" y="604" fill="#D8DADE" font-family="-apple-system,BlinkMacSystemFont,Segoe UI,sans-serif" font-size="14" font-weight="720">Launch at login</text>
  <rect x="748" y="590" width="36" height="18" rx="9" fill="#4CBB5E"/>
  <circle cx="774" cy="599" r="7" fill="#EEF6EA"/>
  </g>

  <defs>
    <linearGradient id="glass" x1="360" y1="92" x2="840" y2="668" gradientUnits="userSpaceOnUse">
      <stop stop-color="#FFFFFF" stop-opacity="0.045"/>
      <stop offset="1" stop-color="#FFFFFF" stop-opacity="0.015"/>
    </linearGradient>
  </defs>
</svg>
